# AST/ASF file generated using VICON BodyLanguage
# -----------------------------------------------
:version 1.10
:name VICON
:units
  mass 1.0
  length 0.45
  angle deg
:documentation
   .ast/.asf automatically generated from VICON data using
   VICON BodyBuilder and BodyLanguage model FoxedUp or BRILLIANT.MOD
:root
   order TX TY TZ RX RY RZ
   axis XYZ
   position 0 0 0  
   orientation 0 0 0 
:bonedata
  begin
     id 1 
     name lhipjoint
     direction 0.623415 -0.642378 0.445763 
     length 2.49859 
     axis 0 0 0  XYZ
  end
  begin
     id 2 
     name lfemur
     direction 0.34202 -0.939693 0  
     length 6.69689  
     axis 0 0 20  XYZ
    dof rx ry rz
    limits (-160.0 20.0)
           (-70.0 70.0)
           (-60.0 70.0)
  end
  begin
     id 3 
     name ltibia
     direction 0.34202 -0.939693 0   
     length 7.37574   
     axis 0 0 20   XYZ
    dof rx
    limits (-10.0 170.0)
  end
  begin
     id 4 
     name lfoot
     direction 0.084323 -0.231675 0.969132   
     length 2.09111   
     axis -90 7.62852e-016 20   XYZ
    dof rx rz
    limits (-45.0 90.0)
           (-70.0 20.0)
  end
  begin
     id 5 
     name ltoes
     direction 1.5357e-011 -4.21957e-011 1   
     length 1.04989   
     axis -90 7.62852e-016 20   XYZ
    dof rx
    limits (-90.0 20.0)
  end
  begin
     id 6 
     name rhipjoint
     direction -0.605402 -0.653903 0.45376   
     length 2.45455  
     axis 0 0 0  XYZ 
  end
  begin
     id 7 
     name rfemur
     direction -0.34202 -0.939693 0   
     length 6.64523   
     axis 0 0 -20   XYZ
    dof rx ry rz
    limits (-160.0 20.0)
           (-70.0 70.0)
           (-70.0 60.0)
  end
  begin
     id 8 
     name rtibia
     direction -0.34202 -0.939693 0   
     length 7.3339   
     axis 0 0 -20   XYZ
    dof rx
    limits (-10.0 170.0)
 end
 begin
     id 9 
     name rfoot
     direction -0.120854 -0.332043 0.93549   
     length 2.23135  
     axis -90 -7.62852e-016 -20   XYZ
    dof rx rz
    limits (-45.0 90.0)
           (-20.0 70.0)
  end
  begin
     id 10 
     name rtoes
     direction -1.53563e-011 -4.21914e-011 1   
     length 1.10614   
     axis -90 -7.62852e-016 -20   XYZ
    dof rx
    limits (-90.0 20.0)
  end
  begin
     id 11 
     name lowerback
     direction 0.0319682 0.998615 -0.0417941   
     length 2.02718   
     axis 0 0 0   XYZ
    dof rx ry rz
    limits (-20.0 45.0)
           (-30.0 30.0)
           (-30.0 30.0)
  end
  begin
     id 12 
     name upperback
     direction 7.63181e-005 0.995808 0.0914691   
     length 1.97539   
     axis 0 0 0   XYZ
    dof rx ry rz
    limits (-20.0 45.0)
           (-30.0 30.0)
           (-30.0 30.0)
  end
  begin
     id 13 
     name thorax
     direction -0.016423 0.993627 0.111514   
     length 2.00349   
     axis 0 0 0   XYZ
    dof rx ry rz
    limits (-20.0 45.0)
           (-30.0 30.0)
           (-30.0 30.0)
  end
  begin
     id 14 
     name lowerneck
     direction -0.174763 0.981668 -0.0760716   
     length 1.71436   
     axis 0 0 0   XYZ
    dof rx ry rz
    limits (-20.0 45.0)
           (-30.0 30.0)
           (-30.0 30.0)
  end
  begin
     id 15 
     name upperneck
     direction 0.345458 0.934587 -0.0848868   
     length 1.72805   
     axis 0 0 0   XYZ
    dof rx ry rz
    limits (-20.0 45.0)
           (-30.0 30.0)
           (-30.0 30.0)
  end
  begin
     id 16
     name head
     direction 0.13001 0.989848 -0.0574291  
     length 1.767  
     axis 0 0 0   XYZ
    dof rx ry rz
    limits (-20.0 45.0)
           (-30.0 30.0)
           (-30.0 30.0)
  end
  begin
     id 17 
     name lclavicle
     direction 0.952951 0.290122 0.0878234  
     length 3.54654  
     axis 0 0 0   XYZ
    dof ry rz
    limits (-20.0 10.0)
           (0.0 20.0)
  end
  begin
     id 18 
     name lhumerus
     direction 1 -4.48957e-011 -4.56525e-028   
     length 5.19807   
     axis 180 -30 -90   XYZ
    dof rx ry rz
    limits (-60.0 90.0)
           (-90.0 90.0)
           (-90.0 90.0)
  end
  begin
     id 19
     name lradius
     direction 1 -4.48979e-011 -2.0317e-027   
     length 3.0937   
     axis 180 -30 -90   XYZ
    dof rx
    limits (-10.0 170.0)
  end
  begin
     id 20
     name lwrist
     direction 1 -4.48953e-011 -3.05809e-027   
     length 1.54685   
     axis 8.48514e-016 90 90   XYZ
    dof ry
    limits (-180.0 0.0)
 end
  begin
     id 21 
     name lhand
     direction 1 -4.48952e-011 -6.11639e-027   
     length 0.672632   
     axis 3.9013e-015 90 90   XYZ
    dof rx rz
    limits (-90.0 90.0)
           (-45.0 45.0)
  end
  begin
     id 22 
     name lfingers
     direction 1 -4.48925e-011 -1.22426e-026   
     length 0.542293   
     axis 7.80276e-015 90 90   XYZ
    dof rx
    limits (0.0 90.0)
  end
  begin
     id 23
     name lthumb
     direction 0.707107 -6.3486e-011 0.707107   
     length 0.778628   
     axis -90 45 5.37419e-014   XYZ
    dof rx rz
    limits (-45.0 45.0)
           (-45.0 45.0)
  end
  begin
     id 24 
     name rclavicle
     direction -0.960732 0.273675 -0.0457849   
     length 3.52079  
     axis 0 0 0   XYZ 
    dof ry rz
    limits (-10.0 20.0)
           (-20.0 0.0)
  end
  begin
     id 25 
     name rhumerus
     direction -1 -4.48976e-011 -1.63613e-027  
     length 5.45222   
     axis 180 30 90   XYZ
    dof rx ry rz
    limits (-90.0 60.0)
           (-90.0 90.0)
           (-90.0 90.0)
  end
  begin
     id 26 
     name rradius
     direction -1 -4.48957e-011 -7.00033e-028   
     length 3.01284   
     axis 180 30 90   XYZ
    dof rx
    limits (-10.0 170.0)
  end
  begin
     id 27 
     name rwrist
     direction -1 -4.48983e-011 -3.05543e-027   
     length 1.50642   
     axis 8.48514e-016 -90 -90   XYZ
    dof ry
    limits (-180.0 0.0)
  end
  begin
     id 28
     name rhand
     direction -1 -4.48984e-011 -6.11072e-027   
     length 0.622296   
     axis 3.9013e-015 -90 -90   XYZ
    dof rx rz
    limits (-90.0 90.0)
           (-45.0 45.0)
  end
  begin
     id 29
     name rfingers
     direction -1 -4.48865e-011 -1.22637e-026   
     length 0.501711   
     axis 7.80276e-015 -90 -90   XYZ
    dof rx
    limits (0.0 90.0)
  end
  begin
     id 30
     name rthumb
     direction -0.707107 -6.34932e-011 0.707107   
     length 0.72036   
     axis -90 -45 -5.37419e-014   XYZ
    dof rx rz
    limits (-45.0 45.0)
           (-45.0 45.0)
  end
:hierarchy
  begin
    root lhipjoint rhipjoint lowerback
    lhipjoint lfemur
    lfemur ltibia
    ltibia lfoot
    lfoot ltoes
    rhipjoint rfemur
    rfemur rtibia
    rtibia rfoot
    rfoot rtoes
    lowerback upperback
    upperback thorax
    thorax lowerneck lclavicle rclavicle
    lowerneck upperneck
    upperneck head
    lclavicle lhumerus
    lhumerus lradius
    lradius lwrist
    lwrist lhand lthumb
    lhand lfingers
    rclavicle rhumerus
    rhumerus rradius
    rradius rwrist
    rwrist rhand rthumb
    rhand rfingers
  end

#!OML:ASF H:\Not Pregnant\Project 1\Capture day 1\Session 1\non-pregnant.ASF
:FULLY-SPECIFIED
:DEGREES
261
root 6.74904 15.9521 15.7414 -176.134 9.81989 -173.594
lowerback 9.39599 3.39208 5.19833
upperback -1.80756 5.14482 -0.221555
thorax -6.70009 2.3162 -3.90118
lowerneck 17.1509 -8.07645 -31.3575
upperneck 5.50165 -23.3813 35.2402
head 7.19507 -14.3311 16.9139
rclavicle -3.18055e-014 1.19271e-015
rhumerus -29.5289 -3.04056 -85.8345
rradius 42.3171
rwrist 14.2722
rhand -12.3057 -5.25205
rfingers 7.12502
rthumb -166.238 145.223
lclavicle -3.18055e-014 1.19271e-015
lhumerus -46.2571 0.886818 78.7961
lradius 34.3036
lwrist 36.859
lhand -17.5031 -8.29716
lfingers 7.12502
lthumb 8.74986 21.5015
rfemur -7.63814 9.70954 32.7038
rtibia 29.5977
rfoot -14.7931 14.5887
rtoes -11.8143
lfemur -97.8928 13.3152 -19.7214
ltibia 125.514
lfoot -13.8798 -9.73861
ltoes -28.5567
262
root 6.73998 15.956 15.654 -176.188 10.2854 -173.591
lowerback 9.48512 3.41597 5.27851
upperback -1.73838 5.18472 -0.281402
thorax -6.66074 2.33393 -4.01743
lowerneck 16.9518 -8.03473 -31.3723
upperneck 5.69901 -23.2858 35.1314
head 7.23444 -14.2639 16.8738
rclavicle -8.88567e-014 -2.06736e-014
rhumerus -29.5353 -2.78489 -86.0935
rradius 42.7356
rwrist 14.4323
rhand -12.043 -5.18176
rfingers 7.12502
rthumb -165.984 145.311
lclavicle -8.88567e-014 -2.06736e-014
lhumerus -46.4013 1.27387 78.487
lradius 33.6447
lwrist 36.4244
lhand -17.6853 -8.01751
lfingers 7.12502
lthumb 8.574 21.7884
rfemur -7.18215 9.89411 32.6161
rtibia 29.5079
rfoot -14.7513 14.9306
rtoes -11.9195
lfemur -98.1364 12.7864 -19.7005
ltibia 123.62
lfoot -12.9711 -9.39783
ltoes -27.8323
263
root 6.73113 15.9607 15.566 -176.207 10.7459 -173.592
lowerback 9.53237 3.44014 5.35055
upperback -1.67539 5.22202 -0.339884
thorax -6.60499 2.35151 -4.12435
lowerneck 16.7486 -7.99256 -31.4002
upperneck 5.88741 -23.191 35.036
head 7.27669 -14.198 16.8422
rclavicle 1.78409e-014 -5.56597e-015
rhumerus -29.5572 -2.52832 -86.3467
rradius 43.155
rwrist 14.6147
rhand -11.7512 -5.08928
rfingers 7.12502
rthumb -165.703 145.423
lclavicle 1.78409e-014 -5.56597e-015
lhumerus -46.5574 1.62719 78.2151
lradius 33.0543
lwrist 36.0229
lhand -17.8816 -7.71396
lfingers 7.12502
lthumb 8.38457 22.0996
rfemur -6.76379 10.0993 32.5142
rtibia 29.4136
rfoot -14.6981 15.2775
rtoes -12.0465
lfemur -98.2385 12.3137 -19.6298
ltibia 121.567
lfoot -11.8701 -9.24844
ltoes -27.0343
264
root 6.72336 15.9661 15.4793 -176.183 11.1692 -173.598
lowerback 9.54999 3.45747 5.40368
upperback -1.62062 5.24658 -0.396868
thorax -6.54405 2.36382 -4.21553
lowerneck 16.541 -7.95637 -31.4238
upperneck 6.05394 -23.095 34.9523
head 7.31447 -14.1307 16.8143
rclavicle -1.87355e-014 0
rhumerus -29.5883 -2.28567 -86.5917
rradius 43.5779
rwrist 14.8315
rhand -11.4387 -4.96201
rfingers 7.12502
rthumb -165.402 145.572
lclavicle -1.87355e-014 0
lhumerus -46.7089 1.93727 77.9814
lradius 32.5244
lwrist 35.6483
lhand -18.0618 -7.4243
lfingers 7.12502
lthumb 8.2107 22.3962
rfemur -6.40585 10.3125 32.4065
rtibia 29.329
rfoot -14.6304 15.5999
rtoes -12.223
lfemur -98.2177 11.8721 -19.5122
ltibia 119.348
lfoot -10.5364 -9.30159
ltoes -26.1085
265
root 6.71692 15.9716 15.3945 -176.115 11.5404 -173.608
lowerback 9.54396 3.46241 5.43521
upperback -1.57883 5.2514 -0.448837
thorax -6.48787 2.36701 -4.28559
lowerneck 16.5314 -11.7206 -32.5851
upperneck 8.7344 -21.9816 33.6355
head 8.01836 -11.8778 16.6414
rclavicle -1.92324e-014 2.94201e-014
rhumerus -29.6345 -2.06268 -86.8264
rradius 44.0031
rwrist 15.0824
rhand -11.1061 -4.78986
rfingers 7.12502
rthumb -165.082 145.767
lclavicle -1.92324e-014 2.94201e-014
lhumerus -46.8589 2.2077 77.7859
lradius 32.0527
lwrist 35.2902
lhand -18.209 -7.13746
lfingers 7.12502
lthumb 8.06861 22.6885
rfemur -6.11907 10.5183 32.2995
rtibia 29.2698
rfoot -14.5555 15.89
rtoes -12.4362
lfemur -98.0808 11.4546 -19.3547
ltibia 116.964
lfoot -8.95658 -9.54275
ltoes -25.096
266
root 6.71278 15.9768 15.3143 -175.987 11.8282 -173.612
lowerback 9.53483 3.44995 5.44171
upperback -1.5592 5.23084 -0.49559
thorax -6.45894 2.35722 -4.33389
lowerneck 16.3134 -11.6838 -32.5806
upperneck 8.84743 -21.8977 33.5807
head 8.04869 -11.8195 16.6206
rclavicle -2.69353e-014 1.03368e-014
rhumerus -29.6901 -1.87997 -87.0503
rradius 44.4342
rwrist 15.3558
rhand -10.7438 -4.58214
rfingers 7.12502
rthumb -164.733 146.001
lclavicle -2.69353e-014 1.03368e-014
lhumerus -46.9939 2.41287 77.6362
lradius 31.6389
lwrist 34.9713
lhand -18.324 -6.86806
lfingers 7.12502
lthumb 7.95767 22.9621
rfemur -5.93124 10.7093 32.2121
rtibia 29.2453
rfoot -14.4692 16.117
rtoes -12.6881
lfemur -97.8573 11.049 -19.1593
ltibia 114.406
lfoot -7.11213 -9.97029
ltoes -23.9424
267
root 6.71079 15.981 15.2384 -175.806 12.0317 -173.608
lowerback 9.52583 3.41423 5.42177
upperback -1.56873 5.17788 -0.529042
thorax -6.46826 2.33055 -4.35088
lowerneck 16.1117 -11.6394 -32.5846
upperneck 8.94193 -21.8064 33.5367
head 8.07037 -11.76 16.609
rclavicle -3.55328e-014 -1.03368e-014
rhumerus -29.7667 -1.7199 -87.2615
rradius 44.8507
rwrist 15.6572
rhand -10.3907 -4.29649
rfingers 7.12502
rthumb -164.393 146.313
lclavicle -3.55328e-014 -1.03368e-014
lhumerus -47.1454 2.5674 77.5351
lradius 31.2977
lwrist 34.7033
lhand -18.4032 -6.63209
lfingers 7.12502
lthumb 7.88117 23.201
rfemur -5.83658 10.8783 32.1487
rtibia 29.2595
rfoot -14.3808 16.2776
rtoes -12.9495
lfemur -97.5409 10.6604 -18.9375
ltibia 111.68
lfoot -5.03342 -10.5479
ltoes -22.6611
268
root 6.70952 15.9846 15.1637 -175.591 12.2126 -173.594
lowerback 9.50476 3.37314 5.39374
upperback -1.59384 5.11726 -0.552019
thorax -6.48982 2.29981 -4.35118
lowerneck 15.918 -11.5903 -32.6025
upperneck 9.02966 -21.7125 33.4979
head 8.09039 -11.7011 16.6037
rclavicle 1.03865e-014 1.98785e-014
rhumerus -29.867 -1.57988 -87.459
rradius 45.2542
rwrist 15.9695
rhand -10.0475 -3.95621
rfingers 7.12502
rthumb -164.062 146.68
lclavicle 1.03865e-014 1.98785e-014
lhumerus -47.3105 2.67299 77.4882
lradius 31.027
lwrist 34.4895
lhand -18.458 -6.43099
lfingers 7.12502
lthumb 7.82828 23.4041
rfemur -5.79767 11.0476 32.0978
rtibia 29.306
rfoot -14.2937 16.4138
rtoes -13.1657
lfemur -97.0947 10.3439 -18.7043
ltibia 108.804
lfoot -2.78136 -11.2234
ltoes -21.2254
269
root 6.70846 15.9875 15.089 -175.347 12.3936 -173.569
lowerback 9.46483 3.33314 5.3653
upperback -1.63315 5.05808 -0.564576
thorax -6.51662 2.26955 -4.33967
lowerneck 15.7418 -11.5309 -32.6327
upperneck 9.11215 -21.6085 33.458
head 8.10306 -11.6397 16.6037
rclavicle 3.16068e-014 -1.59028e-015
rhumerus -29.9899 -1.45904 -87.6419
rradius 45.6298
rwrist 16.2904
rhand -9.72759 -3.5844
rfingers 7.12502
rthumb -163.754 147.076
lclavicle 3.16068e-014 -1.59028e-015
lhumerus -47.5018 2.73174 77.4967
lradius 30.8412
lwrist 34.3344
lhand -18.4932 -6.24531
lfingers 7.12502
lthumb 7.79434 23.591
rfemur -5.79787 11.2255 32.0568
rtibia 29.3703
rfoot -14.2074 16.5388
rtoes -13.3278
lfemur -96.5117 10.1136 -18.4643
ltibia 105.791
lfoot -0.429471 -11.9578
ltoes -19.7038
270
root 6.7069 15.9902 15.0128 -175.089 12.6053 -173.528
lowerback 9.40474 3.30445 5.35291
upperback -1.6739 5.0152 -0.572113
thorax -6.53082 2.24735 -4.33239
lowerneck 15.5732 -11.4678 -32.666
upperneck 9.18758 -21.5003 33.4174
head 8.11067 -11.5773 16.6049
rclavicle -2.71341e-014 -2.38542e-015
rhumerus -30.1244 -1.36248 -87.8132
rradius 45.9793
rwrist 16.5995
rhand -9.41308 -3.22556
rfingers 7.12502
rthumb -163.451 147.46
lclavicle -2.71341e-014 -2.38542e-015
lhumerus -47.7002 2.74145 77.5571
lradius 30.73
lwrist 34.231
lhand -18.5113 -6.09757
lfingers 7.12502
lthumb 7.77685 23.7394
rfemur -5.80251 11.4334 32.0231
rtibia 29.43
rfoot -14.1126 16.6686
rtoes -13.4131
lfemur -95.7692 9.98422 -18.2141
ltibia 102.652
lfoot 1.96144 -12.716
ltoes -18.0356
271
root 6.70433 15.9932 14.9339 -174.822 12.8713 -173.473
lowerback 9.32265 3.29722 5.36226
upperback -1.71002 5.0022 -0.579269
thorax -6.52256 2.24009 -4.3387
lowerneck 15.3878 -11.4166 -32.6969
upperneck 9.27211 -21.4052 33.3689
head 8.128 -11.5197 16.5975
rclavicle 1.78906e-015 1.43125e-014
rhumerus -30.2618 -1.30542 -87.9722
rradius 46.2949
rwrist 16.8924
rhand -9.11028 -2.89852
rfingers 7.12502
rthumb -163.16 147.812
lclavicle 1.78906e-015 1.43125e-014
lhumerus -47.8948 2.70275 77.6643
lradius 30.6905
lwrist 34.1732
lhand -18.5063 -5.97151
lfingers 7.12502
lthumb 7.78169 23.8653
rfemur -5.79036 11.6792 31.9887
rtibia 29.463
rfoot -13.9999 16.8267
rtoes -13.4272
lfemur -94.8594 9.96127 -17.9526
ltibia 99.3947
lfoot 4.33319 -13.483
ltoes -16.2233
